<?xml version="1.0" encoding="utf-8"?>
<!-- Generator: Adobe Illustrator 21.0.0, SVG Export Plug-In . SVG Version: 6.00 Build 0)  -->
<svg version="1.1" id="Layer_1" xmlns="http://www.w3.org/2000/svg" xmlns:xlink="http://www.w3.org/1999/xlink" x="0px" y="0px"
	 viewBox="0 0 150 50" style="enable-background:new 0 0 150 50;" xml:space="preserve">
<style type="text/css">
	.st0{fill:none;stroke:#EEA654;stroke-width:2;stroke-linejoin:round;stroke-miterlimit:10;}
	.st1{fill:#EEA654;}
	.st2{fill:none;stroke:#EEA654;stroke-linejoin:round;stroke-miterlimit:10;}
	.st3{fill:none;stroke:#EEA654;stroke-width:1.5;stroke-miterlimit:10;}
	.st4{fill:#D7D7D7;}
</style>
<path class="st0" d="M-116.1,43.4"/>
<polygon class="st1" points="8.6,8.9 45.4,8.9 45.4,16.9 47.4,17.6 47.4,6.9 6.6,6.9 6.6,17.7 8.6,16.9 "/>
<polygon class="st1" points="45.4,40.8 8.6,40.8 8.6,22.3 6.6,23 6.6,42.8 47.4,42.8 47.4,23 45.4,22.2 "/>
<line class="st2" x1="27" y1="12.2" x2="27" y2="20"/>
<path class="st1" d="M27,18c-2.7,0-4.8,2.2-4.8,4.8h9.6C31.8,20.2,29.6,18,27,18z"/>
<g>
	<path class="st3" d="M19.4,32.1c0.1,0,15.6,0,15.6,0"/>
	<g>
		<polyline class="st3" points="22.1,39.3 22.1,35.7 32.4,35.7 32.4,39.3 		"/>
		<line class="st3" x1="22.1" y1="35.7" x2="22.1" y2="32"/>
		<line class="st3" x1="32.4" y1="35.7" x2="32.4" y2="32"/>
	</g>
</g>
<g>
	<polyline class="st3" points="35.2,39.2 35.2,35.7 39.8,35.7 39.8,39.2 39.8,28.7 	"/>
	<polyline class="st3" points="19.2,39.2 19.2,35.7 14.7,35.7 14.7,39.2 14.7,28.7 	"/>
</g>
<path class="st1" d="M27.3,11.8c-0.2-0.1-0.5-0.1-0.7,0L4.3,20.1c0,0.7,0,1.4,0,2.1L27,13.8l22.6,8.4v-2.1L27.3,11.8z"/>
<g>
	<path class="st4" d="M60,21.1c0.2,0,0.4,0.2,0.4,0.4v6.7H61c0.6,0,1.1,0,1.7,0c0.4,0,0.9-0.1,1.4-0.1c0.2,0,0.4,0.1,0.5,0.3
		l0.1,0.5c0,0.2-0.1,0.4-0.3,0.4c-0.5,0.1-1,0.1-1.6,0.2c-0.7,0-1.5,0.1-2.3,0.1h-1c-0.2,0-0.4-0.2-0.4-0.4v-7.6
		c0-0.2,0.2-0.4,0.4-0.4H60z M69.6,33.2h-0.6c-0.2,0-0.4-0.2-0.4-0.4v-6.9c0-0.2-0.2-0.4-0.4-0.4h-0.9c-0.2,0-0.4,0.2-0.4,0.4v6.3
		c0,0.2-0.2,0.4-0.4,0.4h-0.6c-0.2,0-0.4-0.2-0.4-0.4V20.6c0-0.2,0.2-0.4,0.4-0.4h0.6c0.2,0,0.4,0.2,0.4,0.4v3.3
		c0,0.2,0.2,0.4,0.4,0.4h0.9c0.2,0,0.4-0.2,0.4-0.4v-3.5c0-0.2,0.2-0.4,0.4-0.4h0.6c0.2,0,0.4,0.2,0.4,0.4v12.5
		C70,33,69.8,33.2,69.6,33.2z"/>
	<path class="st4" d="M80.3,23.2c-0.1,0.2-0.2,0.4-0.5,0.6c-0.2,0.3-0.5,0.5-0.8,0.8c-0.4,0.3-0.9,0.6-1.4,1
		c-0.4,0.3-0.8,0.6-1.2,0.8c-0.2,0.1-0.5,0.1-0.7-0.1l-0.4-0.5c-0.2-0.2-0.1-0.6,0.1-0.8c0.4-0.3,0.9-0.6,1.3-0.9
		c0.6-0.4,1-0.7,1.4-1.1c0.3-0.2,0.5-0.4,0.6-0.7c0.2-0.2,0.3-0.4,0.4-0.7c0.1-0.2,0.1-0.5,0.2-0.7c0-0.3,0-0.6,0-0.9v-0.2H76
		c-0.3,0-0.5-0.2-0.5-0.5v-0.6c0-0.3,0.2-0.5,0.5-0.5h8.2c0.3,0,0.5,0.2,0.5,0.5v0.6c0,0.3-0.2,0.5-0.5,0.5h-3v0.1
		c0,0.3,0,0.6,0,0.8c0,0.2,0,0.4,0.1,0.6c0.1,0.2,0.1,0.4,0.3,0.6c0.1,0.2,0.3,0.4,0.5,0.6c0.4,0.4,0.9,0.8,1.5,1.1
		c0.4,0.3,0.8,0.5,1.2,0.8c0.3,0.2,0.3,0.5,0.1,0.7l-0.4,0.5c-0.2,0.2-0.5,0.3-0.7,0.1c-0.4-0.2-0.7-0.5-1.1-0.7
		c-0.5-0.3-0.9-0.7-1.3-1c-0.3-0.2-0.5-0.4-0.7-0.6C80.5,23.5,80.3,23.3,80.3,23.2L80.3,23.2z M89.1,27.6v6.6c0,0.3-0.2,0.5-0.5,0.5
		h-10c-0.3,0-0.5-0.2-0.5-0.5v-6.6c0-0.3,0.2-0.5,0.5-0.5h0.8c0.3,0,0.5,0.2,0.5,0.5v1.2c0,0.3,0.2,0.5,0.5,0.5h6.2
		c0.3,0,0.5-0.2,0.5-0.5v-1.2c0-0.3,0.2-0.5,0.5-0.5h0.8C88.9,27.1,89.1,27.4,89.1,27.6z M87.2,32.7v-1.3c0-0.3-0.2-0.5-0.5-0.5
		h-6.2c-0.3,0-0.5,0.2-0.5,0.5v1.3c0,0.3,0.2,0.5,0.5,0.5h6.2C87,33.2,87.2,33,87.2,32.7z M87.2,25.8v-7.9c0-0.3,0.2-0.5,0.5-0.5
		h0.8c0.3,0,0.5,0.2,0.5,0.5v7.9c0,0.3-0.2,0.5-0.5,0.5h-0.8C87.4,26.3,87.2,26.1,87.2,25.8z"/>
	<path class="st4" d="M98.4,34.3v-6.1c0-0.3-0.2-0.5-0.5-0.5h-6.1c-0.3,0-0.5-0.2-0.5-0.5v-0.6c0-0.3,0.2-0.5,0.5-0.5h3.9
		c0.2,0,0.4-0.2,0.5-0.4c0.1-0.4,0.2-0.7,0.2-1.1c0.1-0.5,0.2-1,0.2-1.4c0.1-0.5,0.1-0.9,0.1-1.3c0-0.4,0-0.8,0-1v-0.7h-3.5
		c-0.3,0-0.5-0.2-0.5-0.5V19c0-0.3,0.2-0.5,0.5-0.5h5.4v1.3c0,1.1-0.1,2.1-0.2,3.2c-0.1,0.9-0.2,1.7-0.4,2.4
		c-0.1,0.3,0.2,0.6,0.5,0.6h3.7c0.2,0,0.5-0.2,0.5-0.4c0.2-0.9,0.3-1.8,0.4-2.5c0.1-0.8,0.1-1.6,0.1-2.3v-0.7H100
		c-0.3,0-0.5-0.2-0.5-0.5V19c0-0.3,0.2-0.5,0.5-0.5h5.2v1.3c0,1,0,2-0.1,3c0,0.9-0.2,1.7-0.3,2.6c-0.1,0.3,0.2,0.6,0.5,0.6h1.6
		c0.3,0,0.5,0.2,0.5,0.5v0.6c0,0.3-0.2,0.5-0.5,0.5h-6.1c-0.3,0-0.5,0.2-0.5,0.5v6.1c0,0.3-0.2,0.5-0.5,0.5h-0.9
		C98.6,34.8,98.4,34.6,98.4,34.3z"/>
	<path class="st4" d="M109.2,29.7V19.4c0-0.3,0.2-0.5,0.5-0.5h7.2c0.3,0,0.5,0.2,0.5,0.5v10.2c0,0.3-0.2,0.5-0.5,0.5h-7.2
		C109.5,30.2,109.2,30,109.2,29.7z M111.6,28.6h3.5c0.3,0,0.5-0.2,0.5-0.5v-7c0-0.3-0.2-0.5-0.5-0.5h-3.5c-0.3,0-0.5,0.2-0.5,0.5v7
		C111.1,28.4,111.4,28.6,111.6,28.6z M120.7,34.3V17.9c0-0.3,0.2-0.5,0.5-0.5h0.8c0.3,0,0.5,0.2,0.5,0.5v16.4c0,0.3-0.2,0.5-0.5,0.5
		h-0.8C120.9,34.8,120.7,34.6,120.7,34.3z"/>
	<path class="st4" d="M125.8,29.9c-0.2-0.2-0.1-0.6,0.2-0.7c0.8-0.5,1.5-0.9,2.1-1.3c0.7-0.5,1.3-0.9,1.8-1.3
		c0.5-0.4,0.8-0.7,1.1-1.1c0.3-0.3,0.5-0.7,0.6-1c0.1-0.3,0.2-0.7,0.2-1.1c0-0.4,0-0.8,0-1.2v-1.2c0-0.3-0.2-0.5-0.5-0.5h-5
		c-0.3,0-0.5-0.2-0.5-0.5v-0.6c0-0.3,0.2-0.5,0.5-0.5h6.9c0.3,0,0.5,0.2,0.5,0.5v2.8c0,0.6,0,1.1,0,1.5c0,0.5-0.1,0.9-0.3,1.3
		c-0.2,0.4-0.4,0.8-0.7,1.2c-0.3,0.4-0.7,0.8-1.3,1.3c-0.5,0.5-1.2,1-2,1.5c-0.7,0.5-1.5,1-2.5,1.6c-0.2,0.1-0.6,0.1-0.7-0.2
		L125.8,29.9z M137.5,34.3V17.9c0-0.3,0.2-0.5,0.5-0.5h0.8c0.3,0,0.5,0.2,0.5,0.5v16.4c0,0.3-0.2,0.5-0.5,0.5H138
		C137.7,34.8,137.5,34.6,137.5,34.3z"/>
</g>
</svg>
